<?xml version="1.0" standalone="no"?>
<!DOCTYPE svg PUBLIC "-//W3C//DTD SVG 20010904//EN"
 "http://www.w3.org/TR/2001/REC-SVG-20010904/DTD/svg10.dtd">
<svg version="1.0" xmlns="http://www.w3.org/2000/svg"
 width="512" height="512" viewBox="0 0 512.000000 512.000000"
 preserveAspectRatio="xMidYMid meet">
<metadata>LitFlix</metadata>
<g transform="translate(0.000000,512.000000) scale(0.100000,-0.100000)"
fill="#000000" stroke="none">
<path d="M0 2560 l0 -2560 2560 0 2560 0 0 2560 0 2560 -2560 0 -2560 0 0
-2560z m2780 895 c0 -30 10 -31 99 -10 35 9 72 13 82 10 9 -3 36 -26 59 -51
38 -42 41 -49 35 -82 -9 -49 -25 -65 -102 -104 -65 -33 -113 -77 -113 -104 0
-12 6 -13 23 -7 38 13 89 8 103 -12 19 -25 18 -35 -3 -35 -10 0 -58 -18 -108
-40 -87 -39 -175 -108 -175 -137 0 -17 4 -17 53 8 57 30 178 70 188 63 18 -11
7 -28 -58 -90 -67 -62 -77 -83 -24 -45 38 28 300 161 412 210 90 39 98 45 123
90 14 27 35 77 46 112 10 36 26 73 34 84 14 19 16 18 58 -25 43 -45 110 -126
116 -140 2 -4 -19 -13 -45 -19 -66 -17 -83 -35 -83 -88 0 -25 5 -43 11 -43 7
0 10 -12 7 -30 -3 -16 -2 -30 2 -30 3 0 69 15 146 34 76 19 162 36 189 39 55
6 143 -12 135 -28 -6 -14 -118 -49 -253 -80 -143 -33 -207 -54 -229 -73 -13
-11 -18 -30 -18 -70 0 -48 2 -53 18 -47 9 4 36 12 60 18 38 9 45 8 63 -9 20
-20 20 -20 -78 -66 -54 -26 -141 -65 -193 -87 -52 -23 -111 -51 -130 -63 l-35
-21 48 -16 47 -15 123 58 c67 32 172 83 233 113 118 58 135 59 159 13 13 -25
13 -30 -6 -54 -28 -35 -60 -51 -158 -76 -65 -16 -179 -64 -197 -83 -2 -1 15
-1 36 1 31 3 44 -1 64 -21 32 -32 43 -89 26 -136 -35 -102 -146 -241 -192
-241 -26 0 -24 52 7 175 33 134 41 195 25 195 -6 0 -56 -24 -110 -52 -108 -58
-132 -58 -138 -4 -2 19 -8 26 -17 22 -17 -6 -28 40 -23 104 l3 44 155 81 c173
91 187 105 175 181 -7 50 -11 51 -86 25 -30 -10 -63 -22 -74 -26 l-20 -7 20
12 c11 7 37 24 57 38 l38 25 -20 32 c-11 18 -20 39 -20 48 0 16 35 43 65 48
14 3 23 18 32 54 7 27 10 51 7 54 -20 20 -283 -115 -424 -218 -69 -50 -171
-118 -227 -152 -56 -33 -123 -79 -148 -101 -25 -22 -48 -39 -50 -36 -2 2 -7
33 -11 70 -6 62 -5 66 16 73 12 4 27 2 33 -4 16 -16 22 -14 56 15 35 29 38 40
14 46 -23 6 -105 154 -101 181 2 12 27 37 61 60 60 41 70 53 81 101 7 29 7 29
-31 23 -21 -3 -48 -9 -60 -13 -45 -13 -22 12 47 51 51 29 76 51 93 81 l24 41
-48 -9 c-26 -5 -80 -20 -120 -33 -83 -29 -82 -28 -74 -15 4 6 0 22 -9 35 -9
13 -16 27 -16 30 0 3 35 22 78 43 69 34 79 43 100 85 25 52 42 61 42 22z
m-1224 -97 c12 -12 26 -36 31 -53 9 -27 15 -31 58 -36 64 -7 110 -55 102 -105
l-6 -34 27 14 c80 42 289 47 339 10 31 -23 50 -50 41 -59 -6 -6 -95 -20 -183
-29 -27 -2 -106 -17 -175 -31 -199 -43 -550 -64 -550 -34 0 5 24 9 53 9 28 0
96 7 150 15 143 21 192 51 125 74 -18 6 -50 28 -70 48 -35 34 -39 36 -70 25
-140 -49 -245 -82 -258 -82 -16 0 15 20 138 91 63 36 79 51 119 113 76 117 80
119 129 64z m945 -130 c21 -67 21 -80 13 -277 -8 -178 -11 -206 -25 -209 -21
-4 -49 98 -80 283 -25 157 -23 273 7 306 l19 21 22 -27 c13 -14 32 -58 44 -97z
m-803 -264 c28 -8 29 -40 2 -54 -27 -14 -25 -30 4 -30 35 0 84 -55 141 -160
49 -89 54 -95 86 -98 68 -5 96 -13 117 -33 25 -22 30 -69 8 -69 -8 0 -28 -14
-45 -30 -36 -37 -50 -35 -168 21 -46 21 -86 39 -91 39 -5 0 -8 -91 -9 -202 0
-184 -17 -450 -30 -472 -13 -21 -40 78 -63 233 -13 82 -9 341 6 437 7 45 8 43
-58 58 -46 10 -35 36 16 36 l43 0 7 46 c3 26 6 78 6 116 0 63 -2 69 -17 63
-35 -15 -160 -44 -228 -54 -308 -46 -375 -57 -405 -66 -11 -4 -20 -4 -20 -1 0
3 19 10 43 17 23 6 63 21 89 34 58 29 204 76 354 115 62 16 125 36 141 44 32
17 39 18 71 10z m-207 -225 c19 -19 20 -28 14 -102 -4 -48 -12 -86 -20 -92
-10 -8 -8 -19 11 -55 42 -78 29 -100 -47 -80 -60 16 -76 33 -90 96 -7 30 -15
54 -19 54 -4 0 -15 -9 -26 -21 -10 -12 -38 -32 -62 -46 l-42 -25 -20 23 c-11
13 -19 29 -20 36 0 13 83 64 210 129 69 35 72 39 45 42 -16 1 -77 -13 -134
-33 -113 -38 -166 -43 -197 -21 -18 14 -17 16 21 32 64 28 266 82 313 83 30 1
48 -5 63 -20z m1434 -44 c35 -34 31 -56 -15 -87 l-40 -28 0 -129 c0 -102 3
-131 15 -141 20 -17 40 0 55 46 15 43 28 224 18 230 -10 7 0 24 13 24 6 0 9
-6 7 -12 -3 -7 1 -33 9 -57 28 -94 2 -330 -43 -400 l-16 -23 -30 52 c-16 28
-32 50 -35 47 -2 -3 -9 -36 -13 -74 -12 -91 -24 -123 -50 -123 -19 0 -20 7
-21 93 0 50 -4 101 -9 112 -8 20 -9 20 -9 -1 -1 -11 -10 -29 -21 -39 -18 -16
-21 -16 -44 -2 -23 16 -24 15 -30 -21 -3 -20 -6 -66 -6 -102 0 -75 -18 -228
-28 -244 -19 -31 -40 245 -30 401 6 92 12 122 33 164 15 28 24 53 22 56 -17
16 -193 -139 -238 -209 l-34 -52 -6 40 c-4 21 -9 49 -10 60 -3 17 23 44 130
130 73 60 152 123 175 140 22 18 79 63 126 102 47 39 89 71 93 71 4 1 19 -10
32 -24z m935 -135 c0 -5 -2 -10 -4 -10 -3 0 -8 5 -11 10 -3 6 -1 10 4 10 6 0
11 -4 11 -10z m1 -32 c1 -7 1 -21 0 -30 -1 -9 7 -22 18 -27 30 -17 9 -63 -52
-114 -28 -23 -72 -62 -99 -86 -40 -36 -50 -42 -63 -31 -8 7 -15 19 -15 27 0
24 50 105 95 153 23 25 54 62 70 83 28 38 44 47 46 25z"/>
<path d="M2949 3354 c-7 -9 -34 -25 -59 -36 -41 -18 -46 -24 -42 -45 4 -23 8
-25 44 -19 96 16 125 45 98 97 -13 23 -23 24 -41 3z"/>
<path d="M1595 3201 c-17 -4 -40 -13 -50 -20 -18 -10 -16 -11 13 -6 73 12 92
17 97 26 7 10 -16 10 -60 0z"/>
<path d="M2775 2532 c-16 -11 -37 -27 -45 -37 -13 -16 -11 -21 30 -56 25 -22
48 -39 51 -39 8 0 19 64 19 113 0 42 -10 46 -55 19z"/>
<path d="M2702 2373 c-8 -3 1 -15 25 -34 21 -16 41 -29 46 -29 15 0 6 22 -18
45 -25 25 -30 27 -53 18z"/>
</g>
</svg>
